<svg width="349" height="24" viewBox="0 0 349 24" fill="none" xmlns="http://www.w3.org/2000/svg">
<path d="M34.824 15.52H29.96L29.064 18H27.528L31.56 6.912H33.24L37.256 18H35.72L34.824 15.52ZM34.408 14.336L32.392 8.704L30.376 14.336H34.408ZM38.4693 13.584C38.4693 12.688 38.6506 11.904 39.0133 11.232C39.3759 10.5493 39.8719 10.0213 40.5013 9.648C41.1413 9.27467 41.8559 9.088 42.6453 9.088C43.3279 9.088 43.9626 9.248 44.5493 9.568C45.1359 9.87733 45.5839 10.288 45.8933 10.8V6.16H47.3653V18H45.8933V16.352C45.6053 16.8747 45.1786 17.3067 44.6133 17.648C44.0479 17.9787 43.3866 18.144 42.6293 18.144C41.8506 18.144 41.1413 17.952 40.5013 17.568C39.8719 17.184 39.3759 16.6453 39.0133 15.952C38.6506 15.2587 38.4693 14.4693 38.4693 13.584ZM45.8933 13.6C45.8933 12.9387 45.7599 12.3627 45.4933 11.872C45.2266 11.3813 44.8639 11.008 44.4053 10.752C43.9573 10.4853 43.4613 10.352 42.9173 10.352C42.3733 10.352 41.8773 10.48 41.4293 10.736C40.9813 10.992 40.6239 11.3653 40.3573 11.856C40.0906 12.3467 39.9573 12.9227 39.9573 13.584C39.9573 14.256 40.0906 14.8427 40.3573 15.344C40.6239 15.8347 40.9813 16.2133 41.4293 16.48C41.8773 16.736 42.3733 16.864 42.9173 16.864C43.4613 16.864 43.9573 16.736 44.4053 16.48C44.8639 16.2133 45.2266 15.8347 45.4933 15.344C45.7599 14.8427 45.8933 14.2613 45.8933 13.6ZM60.3698 9.072C61.0524 9.072 61.6604 9.216 62.1938 9.504C62.7271 9.78133 63.1484 10.2027 63.4578 10.768C63.7671 11.3333 63.9218 12.0213 63.9218 12.832V18H62.4818V13.04C62.4818 12.1653 62.2631 11.4987 61.8258 11.04C61.3991 10.5707 60.8178 10.336 60.0818 10.336C59.3244 10.336 58.7218 10.5813 58.2738 11.072C57.8258 11.552 57.6018 12.2507 57.6018 13.168V18H56.1618V13.04C56.1618 12.1653 55.9431 11.4987 55.5058 11.04C55.0791 10.5707 54.4978 10.336 53.7618 10.336C53.0044 10.336 52.4018 10.5813 51.9538 11.072C51.5058 11.552 51.2818 12.2507 51.2818 13.168V18H49.8258V9.232H51.2818V10.496C51.5698 10.0373 51.9538 9.68533 52.4338 9.44C52.9244 9.19467 53.4631 9.072 54.0498 9.072C54.7858 9.072 55.4364 9.23733 56.0018 9.568C56.5671 9.89867 56.9884 10.384 57.2658 11.024C57.5111 10.4053 57.9164 9.92533 58.4818 9.584C59.0471 9.24267 59.6764 9.072 60.3698 9.072ZM67.0621 7.808C66.7848 7.808 66.5501 7.712 66.3581 7.52C66.1661 7.328 66.0701 7.09333 66.0701 6.816C66.0701 6.53867 66.1661 6.304 66.3581 6.112C66.5501 5.92 66.7848 5.824 67.0621 5.824C67.3288 5.824 67.5528 5.92 67.7341 6.112C67.9261 6.304 68.0221 6.53867 68.0221 6.816C68.0221 7.09333 67.9261 7.328 67.7341 7.52C67.5528 7.712 67.3288 7.808 67.0621 7.808ZM67.7661 9.232V18H66.3101V9.232H67.7661ZM74.5196 9.072C75.5863 9.072 76.4503 9.39733 77.1116 10.048C77.773 10.688 78.1036 11.616 78.1036 12.832V18H76.6636V13.04C76.6636 12.1653 76.445 11.4987 76.0076 11.04C75.5703 10.5707 74.973 10.336 74.2156 10.336C73.4476 10.336 72.8343 10.576 72.3756 11.056C71.9276 11.536 71.7036 12.2347 71.7036 13.152V18H70.2476V9.232H71.7036V10.48C71.9916 10.032 72.381 9.68533 72.8716 9.44C73.373 9.19467 73.9223 9.072 74.5196 9.072Z" fill="#9F9F9F"/>
<path d="M9.99977 11.25C7.72977 11.25 7.26977 7.81 7.26977 7.81C6.99977 6.02 7.81977 4 9.96977 4C12.1298 4 12.9498 6.02 12.6798 7.81C12.6798 7.81 12.2698 11.25 9.99977 11.25ZM9.99977 13.82L12.7198 12C15.1098 12 17.2398 14.33 17.2398 16.53V19.02C17.2398 19.02 13.5898 20.15 9.99977 20.15C6.34977 20.15 2.75977 19.02 2.75977 19.02V16.53C2.75977 14.28 4.69977 12.05 7.22977 12.05L9.99977 13.82Z" fill="#9F9F9F"/>
<path d="M317.248 6.848L314.016 18H312.384L309.792 9.024L307.104 18L305.488 18.016L302.368 6.848H303.92L306.352 16.304L309.04 6.848H310.672L313.232 16.272L315.68 6.848H317.248ZM322.665 18.144C321.844 18.144 321.097 17.9573 320.425 17.584C319.764 17.2107 319.241 16.6827 318.857 16C318.484 15.3067 318.297 14.5067 318.297 13.6C318.297 12.704 318.489 11.9147 318.873 11.232C319.268 10.5387 319.801 10.0107 320.473 9.648C321.145 9.27467 321.897 9.088 322.729 9.088C323.561 9.088 324.313 9.27467 324.985 9.648C325.657 10.0107 326.185 10.5333 326.569 11.216C326.964 11.8987 327.161 12.6933 327.161 13.6C327.161 14.5067 326.959 15.3067 326.553 16C326.159 16.6827 325.62 17.2107 324.937 17.584C324.255 17.9573 323.497 18.144 322.665 18.144ZM322.665 16.864C323.188 16.864 323.679 16.7413 324.137 16.496C324.596 16.2507 324.964 15.8827 325.241 15.392C325.529 14.9013 325.673 14.304 325.673 13.6C325.673 12.896 325.535 12.2987 325.257 11.808C324.98 11.3173 324.617 10.9547 324.169 10.72C323.721 10.4747 323.236 10.352 322.713 10.352C322.18 10.352 321.689 10.4747 321.241 10.72C320.804 10.9547 320.452 11.3173 320.185 11.808C319.919 12.2987 319.785 12.896 319.785 13.6C319.785 14.3147 319.913 14.9173 320.169 15.408C320.436 15.8987 320.788 16.2667 321.225 16.512C321.663 16.7467 322.143 16.864 322.665 16.864ZM332.9 18.144C332.078 18.144 331.332 17.9573 330.66 17.584C329.998 17.2107 329.476 16.6827 329.092 16C328.718 15.3067 328.532 14.5067 328.532 13.6C328.532 12.704 328.724 11.9147 329.108 11.232C329.502 10.5387 330.036 10.0107 330.708 9.648C331.38 9.27467 332.132 9.088 332.964 9.088C333.796 9.088 334.548 9.27467 335.22 9.648C335.892 10.0107 336.42 10.5333 336.804 11.216C337.198 11.8987 337.396 12.6933 337.396 13.6C337.396 14.5067 337.193 15.3067 336.788 16C336.393 16.6827 335.854 17.2107 335.172 17.584C334.489 17.9573 333.732 18.144 332.9 18.144ZM332.9 16.864C333.422 16.864 333.913 16.7413 334.372 16.496C334.83 16.2507 335.198 15.8827 335.476 15.392C335.764 14.9013 335.908 14.304 335.908 13.6C335.908 12.896 335.769 12.2987 335.492 11.808C335.214 11.3173 334.852 10.9547 334.404 10.72C333.956 10.4747 333.47 10.352 332.948 10.352C332.414 10.352 331.924 10.4747 331.476 10.72C331.038 10.9547 330.686 11.3173 330.42 11.808C330.153 12.2987 330.02 12.896 330.02 13.6C330.02 14.3147 330.148 14.9173 330.404 15.408C330.67 15.8987 331.022 16.2667 331.46 16.512C331.897 16.7467 332.377 16.864 332.9 16.864ZM338.766 13.584C338.766 12.688 338.947 11.904 339.31 11.232C339.673 10.5493 340.169 10.0213 340.798 9.648C341.438 9.27467 342.153 9.088 342.942 9.088C343.625 9.088 344.259 9.248 344.846 9.568C345.433 9.87733 345.881 10.288 346.19 10.8V6.16H347.662V18H346.19V16.352C345.902 16.8747 345.475 17.3067 344.91 17.648C344.345 17.9787 343.683 18.144 342.926 18.144C342.147 18.144 341.438 17.952 340.798 17.568C340.169 17.184 339.673 16.6453 339.31 15.952C338.947 15.2587 338.766 14.4693 338.766 13.584ZM346.19 13.6C346.19 12.9387 346.057 12.3627 345.79 11.872C345.523 11.3813 345.161 11.008 344.702 10.752C344.254 10.4853 343.758 10.352 343.214 10.352C342.67 10.352 342.174 10.48 341.726 10.736C341.278 10.992 340.921 11.3653 340.654 11.856C340.387 12.3467 340.254 12.9227 340.254 13.584C340.254 14.256 340.387 14.8427 340.654 15.344C340.921 15.8347 341.278 16.2133 341.726 16.48C342.174 16.736 342.67 16.864 343.214 16.864C343.758 16.864 344.254 16.736 344.702 16.48C345.161 16.2133 345.523 15.8347 345.79 15.344C346.057 14.8427 346.19 14.2613 346.19 13.6Z" fill="#9F9F9F"/>
<path d="M283.897 21.968C283.367 21.97 282.857 21.758 282.483 21.382L274.646 13.547C274.441 13.3434 274.284 13.0978 274.183 12.8272C274.083 12.5567 274.043 12.2676 274.066 11.98L274.566 5.41401C274.6 4.93599 274.806 4.48652 275.146 4.14827C275.485 3.81002 275.935 3.60574 276.414 3.57301L282.98 3.07301C283.032 3.06201 283.083 3.06201 283.135 3.06201C283.665 3.06201 284.172 3.27201 284.545 3.64801L292.383 11.482C292.568 11.6677 292.716 11.8883 292.816 12.131C292.917 12.3737 292.969 12.6338 292.969 12.8965C292.969 13.1592 292.917 13.4194 292.816 13.6621C292.716 13.9048 292.568 14.1253 292.383 14.311L285.311 21.382C285.125 21.5683 284.905 21.716 284.662 21.8166C284.42 21.9172 284.159 21.9687 283.897 21.968ZM279.654 6.65401C279.325 6.65411 279.001 6.73531 278.711 6.89042C278.421 7.04554 278.174 7.26978 277.991 7.54329C277.808 7.8168 277.696 8.13113 277.664 8.45845C277.632 8.78576 277.681 9.11595 277.807 9.41978C277.933 9.72361 278.131 9.99169 278.386 10.2003C278.64 10.4089 278.942 10.5516 279.264 10.6157C279.587 10.6798 279.92 10.6633 280.235 10.5678C280.55 10.4723 280.836 10.3006 281.069 10.068L281.076 10.062L281.083 10.055L281.075 10.062C281.353 9.78158 281.541 9.42513 281.617 9.03759C281.693 8.65006 281.652 8.24877 281.5 7.88432C281.348 7.51986 281.092 7.20855 280.763 6.98961C280.435 6.77066 280.049 6.65389 279.654 6.65401Z" fill="#9F9F9F"/>
<path d="M146.608 7.76V6.432H149.616V18H148.144V7.76H146.608ZM151.765 15.424V14.32L157.381 6.544H159.125V14.16H160.725V15.424H159.125V18H157.685V15.424H151.765ZM157.749 8.064L153.445 14.16H157.749V8.064ZM171.741 18.112C170.706 18.112 169.762 17.872 168.909 17.392C168.056 16.9013 167.378 16.224 166.877 15.36C166.386 14.4853 166.141 13.504 166.141 12.416C166.141 11.328 166.386 10.352 166.877 9.488C167.378 8.61333 168.056 7.936 168.909 7.456C169.762 6.96533 170.706 6.72 171.741 6.72C172.786 6.72 173.736 6.96533 174.589 7.456C175.442 7.936 176.114 8.608 176.605 9.472C177.096 10.336 177.341 11.3173 177.341 12.416C177.341 13.5147 177.096 14.496 176.605 15.36C176.114 16.224 175.442 16.9013 174.589 17.392C173.736 17.872 172.786 18.112 171.741 18.112ZM171.741 16.848C172.52 16.848 173.218 16.6667 173.837 16.304C174.466 15.9413 174.957 15.424 175.309 14.752C175.672 14.08 175.853 13.3013 175.853 12.416C175.853 11.52 175.672 10.7413 175.309 10.08C174.957 9.408 174.472 8.89067 173.853 8.528C173.234 8.16533 172.53 7.984 171.741 7.984C170.952 7.984 170.248 8.16533 169.629 8.528C169.01 8.89067 168.52 9.408 168.157 10.08C167.805 10.7413 167.629 11.52 167.629 12.416C167.629 13.3013 167.805 14.08 168.157 14.752C168.52 15.424 169.01 15.9413 169.629 16.304C170.258 16.6667 170.962 16.848 171.741 16.848ZM178.719 13.6C178.719 12.6933 178.901 11.904 179.263 11.232C179.626 10.5493 180.127 10.0213 180.767 9.648C181.418 9.27467 182.159 9.088 182.991 9.088C184.069 9.088 184.954 9.34933 185.647 9.872C186.351 10.3947 186.815 11.12 187.039 12.048H185.471C185.322 11.5147 185.029 11.0933 184.591 10.784C184.165 10.4747 183.631 10.32 182.991 10.32C182.159 10.32 181.487 10.608 180.975 11.184C180.463 11.7493 180.207 12.5547 180.207 13.6C180.207 14.656 180.463 15.472 180.975 16.048C181.487 16.624 182.159 16.912 182.991 16.912C183.631 16.912 184.165 16.7627 184.591 16.464C185.018 16.1653 185.311 15.7387 185.471 15.184H187.039C186.805 16.08 186.335 16.8 185.631 17.344C184.927 17.8773 184.047 18.144 182.991 18.144C182.159 18.144 181.418 17.9573 180.767 17.584C180.127 17.2107 179.626 16.6827 179.263 16C178.901 15.3173 178.719 14.5173 178.719 13.6ZM190.758 10.432V15.6C190.758 16.0267 190.849 16.3307 191.03 16.512C191.211 16.6827 191.526 16.768 191.974 16.768H193.046V18H191.734C190.923 18 190.315 17.8133 189.91 17.44C189.505 17.0667 189.302 16.4533 189.302 15.6V10.432H188.166V9.232H189.302V7.024H190.758V9.232H193.046V10.432H190.758ZM198.66 16.832C200.014 15.744 201.076 14.8533 201.844 14.16C202.612 13.456 203.257 12.7253 203.78 11.968C204.313 11.2 204.58 10.448 204.58 9.712C204.58 9.01867 204.409 8.47467 204.068 8.08C203.737 7.67467 203.198 7.472 202.452 7.472C201.726 7.472 201.161 7.70133 200.756 8.16C200.361 8.608 200.148 9.21067 200.116 9.968H198.708C198.75 8.77333 199.113 7.85067 199.796 7.2C200.478 6.54933 201.358 6.224 202.436 6.224C203.534 6.224 204.404 6.528 205.044 7.136C205.694 7.744 206.02 8.58133 206.02 9.648C206.02 10.5333 205.753 11.3973 205.22 12.24C204.697 13.072 204.1 13.808 203.428 14.448C202.756 15.0773 201.897 15.8133 200.852 16.656H206.356V17.872H198.66V16.832ZM208.039 12.096C208.039 10.2613 208.338 8.832 208.935 7.808C209.532 6.77333 210.578 6.256 212.071 6.256C213.554 6.256 214.594 6.77333 215.191 7.808C215.788 8.832 216.087 10.2613 216.087 12.096C216.087 13.9627 215.788 15.4133 215.191 16.448C214.594 17.4827 213.554 18 212.071 18C210.578 18 209.532 17.4827 208.935 16.448C208.338 15.4133 208.039 13.9627 208.039 12.096ZM214.647 12.096C214.647 11.168 214.583 10.384 214.455 9.744C214.338 9.09333 214.087 8.57067 213.703 8.176C213.33 7.78133 212.786 7.584 212.071 7.584C211.346 7.584 210.791 7.78133 210.407 8.176C210.034 8.57067 209.783 9.09333 209.655 9.744C209.538 10.384 209.479 11.168 209.479 12.096C209.479 13.056 209.538 13.8613 209.655 14.512C209.783 15.1627 210.034 15.6853 210.407 16.08C210.791 16.4747 211.346 16.672 212.071 16.672C212.786 16.672 213.33 16.4747 213.703 16.08C214.087 15.6853 214.338 15.1627 214.455 14.512C214.583 13.8613 214.647 13.056 214.647 12.096ZM217.91 16.832C219.264 15.744 220.326 14.8533 221.094 14.16C221.862 13.456 222.507 12.7253 223.03 11.968C223.563 11.2 223.83 10.448 223.83 9.712C223.83 9.01867 223.659 8.47467 223.318 8.08C222.987 7.67467 222.448 7.472 221.702 7.472C220.976 7.472 220.411 7.70133 220.006 8.16C219.611 8.608 219.398 9.21067 219.366 9.968H217.958C218 8.77333 218.363 7.85067 219.046 7.2C219.728 6.54933 220.608 6.224 221.686 6.224C222.784 6.224 223.654 6.528 224.294 7.136C224.944 7.744 225.27 8.58133 225.27 9.648C225.27 10.5333 225.003 11.3973 224.47 12.24C223.947 13.072 223.35 13.808 222.678 14.448C222.006 15.0773 221.147 15.8133 220.102 16.656H225.606V17.872H217.91V16.832ZM227.113 16.832C228.468 15.744 229.529 14.8533 230.297 14.16C231.065 13.456 231.71 12.7253 232.233 11.968C232.766 11.2 233.033 10.448 233.033 9.712C233.033 9.01867 232.862 8.47467 232.521 8.08C232.19 7.67467 231.652 7.472 230.905 7.472C230.18 7.472 229.614 7.70133 229.209 8.16C228.814 8.608 228.601 9.21067 228.569 9.968H227.161C227.204 8.77333 227.566 7.85067 228.249 7.2C228.932 6.54933 229.812 6.224 230.889 6.224C231.988 6.224 232.857 6.528 233.497 7.136C234.148 7.744 234.473 8.58133 234.473 9.648C234.473 10.5333 234.206 11.3973 233.673 12.24C233.15 13.072 232.553 13.808 231.881 14.448C231.209 15.0773 230.35 15.8133 229.305 16.656H234.809V17.872H227.113V16.832Z" fill="#9F9F9F"/>
<path d="M116.667 15.8333C116.667 17.25 117.75 18.3333 119.167 18.3333H130.834C132.25 18.3333 133.334 17.25 133.334 15.8333V9.16666H116.667V15.8333ZM130.834 3.33332H129.167V2.49999C129.167 1.99999 128.834 1.66666 128.334 1.66666C127.834 1.66666 127.5 1.99999 127.5 2.49999V3.33332H122.5V2.49999C122.5 1.99999 122.167 1.66666 121.667 1.66666C121.167 1.66666 120.834 1.99999 120.834 2.49999V3.33332H119.167C117.75 3.33332 116.667 4.41666 116.667 5.83332V7.49999H133.334V5.83332C133.334 4.41666 132.25 3.33332 130.834 3.33332Z" fill="#9F9F9F"/>
</svg>
